<mxfile host="65bd71144e">
    <diagram id="utv_D--Is2pyvzvbY1Hj" name="build0">
        <mxGraphModel dx="979" dy="787" grid="0" gridSize="10" guides="1" tooltips="1" connect="1" arrows="1" fold="1" page="1" pageScale="1" pageWidth="827" pageHeight="1169" math="0" shadow="0">
            <root>
                <mxCell id="0"/>
                <mxCell id="1" parent="0"/>
                <mxCell id="3" value="Core - Controller" style="shape=umlLifeline;perimeter=lifelinePerimeter;whiteSpace=wrap;html=1;container=1;collapsible=0;recursiveResize=0;outlineConnect=0;" parent="1" vertex="1">
                    <mxGeometry x="320" y="140" width="100" height="200" as="geometry"/>
                </mxCell>
                <mxCell id="7" value="" style="html=1;points=[];perimeter=orthogonalPerimeter;" parent="3" vertex="1">
                    <mxGeometry x="45" y="70" width="10" height="110" as="geometry"/>
                </mxCell>
                <mxCell id="8" value="httpPost(body=dslScript)" style="html=1;verticalAlign=bottom;endArrow=block;entryX=0;entryY=0;" parent="1" source="Bd0fc6Pxmun-X_p79CJK-13" target="7" edge="1">
                    <mxGeometry relative="1" as="geometry">
                        <mxPoint x="109.5" y="210.0000000000001" as="sourcePoint"/>
                    </mxGeometry>
                </mxCell>
                <mxCell id="9" value="" style="html=1;verticalAlign=bottom;endArrow=open;dashed=1;endSize=8;exitX=0;exitY=0.95;" parent="1" source="7" target="Bd0fc6Pxmun-X_p79CJK-13" edge="1">
                    <mxGeometry relative="1" as="geometry">
                        <mxPoint x="109.5" y="314.5" as="targetPoint"/>
                    </mxGeometry>
                </mxCell>
                <mxCell id="10" value="Core - DslService" style="shape=umlLifeline;perimeter=lifelinePerimeter;whiteSpace=wrap;html=1;container=1;collapsible=0;recursiveResize=0;outlineConnect=0;" parent="1" vertex="1">
                    <mxGeometry x="480" y="140" width="100" height="200" as="geometry"/>
                </mxCell>
                <mxCell id="11" value="" style="html=1;points=[];perimeter=orthogonalPerimeter;" parent="10" vertex="1">
                    <mxGeometry x="45" y="110" width="10" height="50" as="geometry"/>
                </mxCell>
                <mxCell id="12" value="createDsl(name, fileBytes)" style="html=1;verticalAlign=bottom;endArrow=block;entryX=0;entryY=0;" parent="1" source="7" target="11" edge="1">
                    <mxGeometry relative="1" as="geometry">
                        <mxPoint x="410" y="250" as="sourcePoint"/>
                    </mxGeometry>
                </mxCell>
                <mxCell id="13" value="" style="html=1;verticalAlign=bottom;endArrow=open;dashed=1;endSize=8;exitX=0;exitY=0.95;" parent="1" source="11" target="7" edge="1">
                    <mxGeometry relative="1" as="geometry">
                        <mxPoint x="440" y="298" as="targetPoint"/>
                    </mxGeometry>
                </mxCell>
                <mxCell id="Bd0fc6Pxmun-X_p79CJK-13" value="" style="shape=umlLifeline;participant=umlActor;perimeter=lifelinePerimeter;whiteSpace=wrap;html=1;container=1;collapsible=0;recursiveResize=0;verticalAlign=top;spacingTop=36;outlineConnect=0;" parent="1" vertex="1">
                    <mxGeometry x="130" y="140" width="20" height="200" as="geometry"/>
                </mxCell>
            </root>
        </mxGraphModel>
    </diagram>
    <diagram name="build1" id="wGGCoqhekfrhkk6rmXAf">
        <mxGraphModel dx="1386" dy="787" grid="0" gridSize="10" guides="1" tooltips="1" connect="1" arrows="1" fold="1" page="1" pageScale="1" pageWidth="827" pageHeight="1169" math="0" shadow="0">
            <root>
                <mxCell id="_SHjirO3JfAntVt3ac7E-0"/>
                <mxCell id="_SHjirO3JfAntVt3ac7E-1" parent="_SHjirO3JfAntVt3ac7E-0"/>
                <mxCell id="_SHjirO3JfAntVt3ac7E-5" value="Core - DslService" style="shape=umlLifeline;perimeter=lifelinePerimeter;whiteSpace=wrap;html=1;container=1;collapsible=0;recursiveResize=0;outlineConnect=0;" parent="_SHjirO3JfAntVt3ac7E-1" vertex="1">
                    <mxGeometry x="170" y="140" width="100" height="180" as="geometry"/>
                </mxCell>
                <mxCell id="_SHjirO3JfAntVt3ac7E-6" value="" style="html=1;points=[];perimeter=orthogonalPerimeter;" parent="_SHjirO3JfAntVt3ac7E-5" vertex="1">
                    <mxGeometry x="45" y="60" width="10" height="90" as="geometry"/>
                </mxCell>
                <mxCell id="_SHjirO3JfAntVt3ac7E-7" value="createDsl(name, fileBytes)" style="html=1;verticalAlign=bottom;startArrow=oval;endArrow=block;startSize=8;" parent="_SHjirO3JfAntVt3ac7E-5" edge="1">
                    <mxGeometry relative="1" as="geometry">
                        <mxPoint x="-105" y="60" as="sourcePoint"/>
                        <mxPoint x="50" y="60" as="targetPoint"/>
                    </mxGeometry>
                </mxCell>
                <mxCell id="_SHjirO3JfAntVt3ac7E-11" value="DataBase" style="shape=umlLifeline;perimeter=lifelinePerimeter;whiteSpace=wrap;html=1;container=1;collapsible=0;recursiveResize=0;outlineConnect=0;" parent="_SHjirO3JfAntVt3ac7E-1" vertex="1">
                    <mxGeometry x="490" y="140" width="100" height="190" as="geometry"/>
                </mxCell>
                <mxCell id="_SHjirO3JfAntVt3ac7E-12" value="" style="html=1;points=[];perimeter=orthogonalPerimeter;" parent="_SHjirO3JfAntVt3ac7E-11" vertex="1">
                    <mxGeometry x="45" y="68" width="10" height="25" as="geometry"/>
                </mxCell>
                <mxCell id="_SHjirO3JfAntVt3ac7E-16" value="" style="html=1;verticalAlign=bottom;labelBackgroundColor=none;endArrow=open;endFill=0;dashed=1;" parent="_SHjirO3JfAntVt3ac7E-1" source="_SHjirO3JfAntVt3ac7E-6" edge="1">
                    <mxGeometry width="160" relative="1" as="geometry">
                        <mxPoint x="230" y="273" as="sourcePoint"/>
                        <mxPoint x="350" y="270" as="targetPoint"/>
                    </mxGeometry>
                </mxCell>
                <mxCell id="_SHjirO3JfAntVt3ac7E-17" value="&amp;lt;&amp;lt;async - create&amp;gt;&amp;gt;" style="edgeLabel;html=1;align=center;verticalAlign=middle;resizable=0;points=[];" parent="_SHjirO3JfAntVt3ac7E-16" vertex="1" connectable="0">
                    <mxGeometry x="0.45" relative="1" as="geometry">
                        <mxPoint x="-27" y="-10" as="offset"/>
                    </mxGeometry>
                </mxCell>
                <mxCell id="_SHjirO3JfAntVt3ac7E-18" value="BuilderJob" style="shape=umlLifeline;perimeter=lifelinePerimeter;whiteSpace=wrap;html=1;container=1;collapsible=0;recursiveResize=0;outlineConnect=0;" parent="_SHjirO3JfAntVt3ac7E-1" vertex="1">
                    <mxGeometry x="350" y="250" width="100" height="70" as="geometry"/>
                </mxCell>
                <mxCell id="_SHjirO3JfAntVt3ac7E-21" value="createDsl(...)" style="html=1;verticalAlign=bottom;endArrow=block;entryX=0;entryY=0;exitX=1.104;exitY=0.106;exitDx=0;exitDy=0;exitPerimeter=0;" parent="_SHjirO3JfAntVt3ac7E-1" source="_SHjirO3JfAntVt3ac7E-6" target="_SHjirO3JfAntVt3ac7E-12" edge="1">
                    <mxGeometry relative="1" as="geometry">
                        <mxPoint x="240" y="210" as="sourcePoint"/>
                    </mxGeometry>
                </mxCell>
                <mxCell id="_SHjirO3JfAntVt3ac7E-22" value="id" style="html=1;verticalAlign=bottom;endArrow=open;dashed=1;endSize=8;exitX=-0.047;exitY=0.913;exitDx=0;exitDy=0;exitPerimeter=0;" parent="_SHjirO3JfAntVt3ac7E-1" source="_SHjirO3JfAntVt3ac7E-12" target="_SHjirO3JfAntVt3ac7E-6" edge="1">
                    <mxGeometry relative="1" as="geometry">
                        <mxPoint x="250" y="234" as="targetPoint"/>
                    </mxGeometry>
                </mxCell>
                <mxCell id="_SHjirO3JfAntVt3ac7E-29" value="" style="html=1;verticalAlign=bottom;endArrow=open;dashed=1;endSize=8;" parent="_SHjirO3JfAntVt3ac7E-1" source="_SHjirO3JfAntVt3ac7E-6" edge="1">
                    <mxGeometry x="-0.1429" y="-10" relative="1" as="geometry">
                        <mxPoint x="210" y="280" as="sourcePoint"/>
                        <mxPoint x="67" y="280" as="targetPoint"/>
                        <mxPoint as="offset"/>
                    </mxGeometry>
                </mxCell>
            </root>
        </mxGraphModel>
    </diagram>
    <diagram name="build2" id="a5JG3vgdXDS3aouaaDYc">
        <mxGraphModel dx="1386" dy="787" grid="0" gridSize="10" guides="1" tooltips="1" connect="1" arrows="1" fold="1" page="1" pageScale="1" pageWidth="827" pageHeight="1169" math="0" shadow="0">
            <root>
                <mxCell id="0touS1AEJUGKjj6mapaU-0"/>
                <mxCell id="0touS1AEJUGKjj6mapaU-1" parent="0touS1AEJUGKjj6mapaU-0"/>
                <mxCell id="0touS1AEJUGKjj6mapaU-2" value="alt" style="shape=umlFrame;tabWidth=110;tabHeight=30;tabPosition=left;html=1;boundedLbl=1;labelInHeader=1;width=70;height=30;" parent="0touS1AEJUGKjj6mapaU-1" vertex="1">
                    <mxGeometry x="120" y="420" width="550" height="200" as="geometry"/>
                </mxCell>
                <mxCell id="0touS1AEJUGKjj6mapaU-3" value="[error]" style="text" parent="0touS1AEJUGKjj6mapaU-2" vertex="1">
                    <mxGeometry width="100" height="20" relative="1" as="geometry">
                        <mxPoint x="20" y="40" as="offset"/>
                    </mxGeometry>
                </mxCell>
                <mxCell id="0touS1AEJUGKjj6mapaU-4" value="[success]" style="line;strokeWidth=1;dashed=1;labelPosition=center;verticalLabelPosition=bottom;align=left;verticalAlign=top;spacingLeft=20;spacingTop=15;" parent="0touS1AEJUGKjj6mapaU-2" vertex="1">
                    <mxGeometry y="100" width="550" height="8" as="geometry"/>
                </mxCell>
                <mxCell id="0touS1AEJUGKjj6mapaU-5" value="Core - DslService" style="shape=umlLifeline;perimeter=lifelinePerimeter;whiteSpace=wrap;html=1;container=1;collapsible=0;recursiveResize=0;outlineConnect=0;" parent="0touS1AEJUGKjj6mapaU-1" vertex="1">
                    <mxGeometry x="170" y="250" width="100" height="410" as="geometry"/>
                </mxCell>
                <mxCell id="0touS1AEJUGKjj6mapaU-8" value="" style="html=1;points=[];perimeter=orthogonalPerimeter;" parent="0touS1AEJUGKjj6mapaU-5" vertex="1">
                    <mxGeometry x="45" y="60" width="10" height="40" as="geometry"/>
                </mxCell>
                <mxCell id="0touS1AEJUGKjj6mapaU-9" value="" style="html=1;points=[];perimeter=orthogonalPerimeter;" parent="0touS1AEJUGKjj6mapaU-5" vertex="1">
                    <mxGeometry x="45" y="190" width="10" height="60" as="geometry"/>
                </mxCell>
                <mxCell id="0touS1AEJUGKjj6mapaU-10" value="" style="html=1;points=[];perimeter=orthogonalPerimeter;" parent="0touS1AEJUGKjj6mapaU-5" vertex="1">
                    <mxGeometry x="45" y="290" width="10" height="60" as="geometry"/>
                </mxCell>
                <mxCell id="0touS1AEJUGKjj6mapaU-11" value="DataBase" style="shape=umlLifeline;perimeter=lifelinePerimeter;whiteSpace=wrap;html=1;container=1;collapsible=0;recursiveResize=0;outlineConnect=0;" parent="0touS1AEJUGKjj6mapaU-1" vertex="1">
                    <mxGeometry x="520" y="250" width="100" height="410" as="geometry"/>
                </mxCell>
                <mxCell id="0touS1AEJUGKjj6mapaU-13" value="" style="html=1;points=[];perimeter=orthogonalPerimeter;" parent="0touS1AEJUGKjj6mapaU-11" vertex="1">
                    <mxGeometry x="45" y="310" width="10" height="20" as="geometry"/>
                </mxCell>
                <mxCell id="0touS1AEJUGKjj6mapaU-14" value="" style="html=1;points=[];perimeter=orthogonalPerimeter;" parent="0touS1AEJUGKjj6mapaU-11" vertex="1">
                    <mxGeometry x="45" y="210" width="10" height="20" as="geometry"/>
                </mxCell>
                <mxCell id="0touS1AEJUGKjj6mapaU-18" value="BuilderJob" style="shape=umlLifeline;perimeter=lifelinePerimeter;whiteSpace=wrap;html=1;container=1;collapsible=0;recursiveResize=0;outlineConnect=0;" parent="0touS1AEJUGKjj6mapaU-1" vertex="1">
                    <mxGeometry x="360" y="250" width="100" height="390" as="geometry"/>
                </mxCell>
                <mxCell id="0touS1AEJUGKjj6mapaU-19" value="" style="html=1;points=[];perimeter=orthogonalPerimeter;" parent="0touS1AEJUGKjj6mapaU-18" vertex="1">
                    <mxGeometry x="44" y="130" width="10" height="30" as="geometry"/>
                </mxCell>
                <mxCell id="0touS1AEJUGKjj6mapaU-20" value="buildDsl" style="edgeStyle=orthogonalEdgeStyle;html=1;align=left;spacingLeft=2;endArrow=block;rounded=0;entryX=1;entryY=0;" parent="0touS1AEJUGKjj6mapaU-18" target="0touS1AEJUGKjj6mapaU-19" edge="1">
                    <mxGeometry relative="1" as="geometry">
                        <mxPoint x="49" y="110" as="sourcePoint"/>
                        <Array as="points">
                            <mxPoint x="79" y="110"/>
                        </Array>
                    </mxGeometry>
                </mxCell>
                <mxCell id="0touS1AEJUGKjj6mapaU-23" value="httpGetDsl(id)" style="html=1;verticalAlign=bottom;endArrow=block;entryX=1;entryY=0;" parent="0touS1AEJUGKjj6mapaU-1" source="0touS1AEJUGKjj6mapaU-18" target="0touS1AEJUGKjj6mapaU-8" edge="1">
                    <mxGeometry relative="1" as="geometry">
                        <mxPoint x="290" y="300" as="sourcePoint"/>
                    </mxGeometry>
                </mxCell>
                <mxCell id="0touS1AEJUGKjj6mapaU-24" value="dslScript" style="html=1;verticalAlign=bottom;endArrow=open;dashed=1;endSize=8;exitX=1;exitY=0.95;" parent="0touS1AEJUGKjj6mapaU-1" source="0touS1AEJUGKjj6mapaU-8" target="0touS1AEJUGKjj6mapaU-18" edge="1">
                    <mxGeometry relative="1" as="geometry">
                        <mxPoint x="290" y="357" as="targetPoint"/>
                    </mxGeometry>
                </mxCell>
                <mxCell id="0touS1AEJUGKjj6mapaU-25" value="reportError(errorMessage)" style="html=1;verticalAlign=bottom;endArrow=block;entryX=1;entryY=0;" parent="0touS1AEJUGKjj6mapaU-1" source="0touS1AEJUGKjj6mapaU-18" target="0touS1AEJUGKjj6mapaU-9" edge="1">
                    <mxGeometry relative="1" as="geometry">
                        <mxPoint x="290" y="440" as="sourcePoint"/>
                    </mxGeometry>
                </mxCell>
                <mxCell id="0touS1AEJUGKjj6mapaU-26" value="" style="html=1;verticalAlign=bottom;endArrow=open;dashed=1;endSize=8;exitX=1;exitY=0.95;" parent="0touS1AEJUGKjj6mapaU-1" source="0touS1AEJUGKjj6mapaU-9" target="0touS1AEJUGKjj6mapaU-18" edge="1">
                    <mxGeometry relative="1" as="geometry">
                        <mxPoint x="290" y="497" as="targetPoint"/>
                    </mxGeometry>
                </mxCell>
                <mxCell id="0touS1AEJUGKjj6mapaU-27" value="" style="html=1;verticalAlign=bottom;endArrow=open;dashed=1;endSize=8;exitX=1;exitY=0.95;" parent="0touS1AEJUGKjj6mapaU-1" source="0touS1AEJUGKjj6mapaU-10" target="0touS1AEJUGKjj6mapaU-18" edge="1">
                    <mxGeometry relative="1" as="geometry">
                        <mxPoint x="290" y="597" as="targetPoint"/>
                    </mxGeometry>
                </mxCell>
                <mxCell id="0touS1AEJUGKjj6mapaU-28" value="uplodJar(compiledScript)" style="html=1;verticalAlign=bottom;endArrow=block;entryX=1;entryY=0;" parent="0touS1AEJUGKjj6mapaU-1" source="0touS1AEJUGKjj6mapaU-18" target="0touS1AEJUGKjj6mapaU-10" edge="1">
                    <mxGeometry relative="1" as="geometry">
                        <mxPoint x="290" y="540" as="sourcePoint"/>
                    </mxGeometry>
                </mxCell>
                <mxCell id="0touS1AEJUGKjj6mapaU-30" value="" style="html=1;verticalAlign=bottom;endArrow=open;dashed=1;endSize=8;exitX=0;exitY=0.95;" parent="0touS1AEJUGKjj6mapaU-1" source="0touS1AEJUGKjj6mapaU-13" target="0touS1AEJUGKjj6mapaU-10" edge="1">
                    <mxGeometry relative="1" as="geometry">
                        <mxPoint x="260" y="580" as="targetPoint"/>
                    </mxGeometry>
                </mxCell>
                <mxCell id="0touS1AEJUGKjj6mapaU-31" value="updateDsl(compiledScript, status=&quot;ready&quot;)" style="html=1;verticalAlign=bottom;endArrow=block;entryX=0;entryY=0;" parent="0touS1AEJUGKjj6mapaU-1" source="0touS1AEJUGKjj6mapaU-10" target="0touS1AEJUGKjj6mapaU-13" edge="1">
                    <mxGeometry relative="1" as="geometry">
                        <mxPoint x="495" y="560" as="sourcePoint"/>
                    </mxGeometry>
                </mxCell>
                <mxCell id="0touS1AEJUGKjj6mapaU-32" value="updateDsl(errorMessage, status=&quot;error&quot;)" style="html=1;verticalAlign=bottom;endArrow=block;entryX=0;entryY=0;" parent="0touS1AEJUGKjj6mapaU-1" source="0touS1AEJUGKjj6mapaU-9" target="0touS1AEJUGKjj6mapaU-14" edge="1">
                    <mxGeometry relative="1" as="geometry">
                        <mxPoint x="250" y="470" as="sourcePoint"/>
                    </mxGeometry>
                </mxCell>
                <mxCell id="0touS1AEJUGKjj6mapaU-15" value="" style="html=1;verticalAlign=bottom;endArrow=open;dashed=1;endSize=8;exitX=0;exitY=0.95;" parent="0touS1AEJUGKjj6mapaU-1" source="0touS1AEJUGKjj6mapaU-14" target="0touS1AEJUGKjj6mapaU-9" edge="1">
                    <mxGeometry relative="1" as="geometry">
                        <mxPoint x="224" y="609.0200000000002" as="targetPoint"/>
                    </mxGeometry>
                </mxCell>
                <mxCell id="2a-AqLqMkyWlzdUfhncV-0" value="" style="shape=umlDestroy;" parent="0touS1AEJUGKjj6mapaU-1" vertex="1">
                    <mxGeometry x="397.5" y="630" width="25" height="20" as="geometry"/>
                </mxCell>
            </root>
        </mxGraphModel>
    </diagram>
    <diagram id="yyVg1IFRu9AUybLdbmGE" name="start1">
        <mxGraphModel dx="979" dy="787" grid="0" gridSize="10" guides="1" tooltips="1" connect="1" arrows="1" fold="1" page="1" pageScale="1" pageWidth="827" pageHeight="1169" math="0" shadow="0">
            <root>
                <mxCell id="0"/>
                <mxCell id="1" parent="0"/>
                <mxCell id="Yh5Q2Wu9u5Uw5rpOBgke-1" value="alt" style="shape=umlFrame;tabWidth=110;tabHeight=30;tabPosition=left;html=1;boundedLbl=1;labelInHeader=1;width=70;height=30;" parent="1" vertex="1">
                    <mxGeometry x="50" y="480" width="320" height="140" as="geometry"/>
                </mxCell>
                <mxCell id="Yh5Q2Wu9u5Uw5rpOBgke-2" value="[error]" style="text" parent="Yh5Q2Wu9u5Uw5rpOBgke-1" vertex="1">
                    <mxGeometry width="40" height="20" relative="1" as="geometry">
                        <mxPoint x="20" y="30" as="offset"/>
                    </mxGeometry>
                </mxCell>
                <mxCell id="Yh5Q2Wu9u5Uw5rpOBgke-3" value="[success]" style="line;strokeWidth=1;dashed=1;labelPosition=center;verticalLabelPosition=bottom;align=left;verticalAlign=top;spacingLeft=19;spacingTop=0;spacing=0;" parent="Yh5Q2Wu9u5Uw5rpOBgke-1" vertex="1">
                    <mxGeometry y="70" width="320" height="5.6000000000000005" as="geometry"/>
                </mxCell>
                <mxCell id="kfKKQYalvcVPobqDcQN6-1" value="Core - DslService" style="shape=umlLifeline;perimeter=lifelinePerimeter;whiteSpace=wrap;html=1;container=1;collapsible=0;recursiveResize=0;outlineConnect=0;" parent="1" vertex="1">
                    <mxGeometry x="290" y="160" width="110" height="470" as="geometry"/>
                </mxCell>
                <mxCell id="Yh5Q2Wu9u5Uw5rpOBgke-6" value="spawnAgent(serverName,&amp;nbsp; cert, rootCa, id)" style="edgeStyle=orthogonalEdgeStyle;html=1;align=left;spacingLeft=2;endArrow=block;rounded=0;entryX=1;entryY=0;" parent="kfKKQYalvcVPobqDcQN6-1" target="Yh5Q2Wu9u5Uw5rpOBgke-5" edge="1">
                    <mxGeometry relative="1" as="geometry">
                        <mxPoint x="55" y="260" as="sourcePoint"/>
                        <Array as="points">
                            <mxPoint x="85" y="260"/>
                        </Array>
                    </mxGeometry>
                </mxCell>
                <mxCell id="agKsEs1f8TgJbRtIlZe3-2" value="" style="html=1;points=[];perimeter=orthogonalPerimeter;" parent="kfKKQYalvcVPobqDcQN6-1" vertex="1">
                    <mxGeometry x="50" y="60" width="10" height="120" as="geometry"/>
                </mxCell>
                <mxCell id="agKsEs1f8TgJbRtIlZe3-3" value="" style="html=1;points=[];perimeter=orthogonalPerimeter;" parent="kfKKQYalvcVPobqDcQN6-1" vertex="1">
                    <mxGeometry x="50" y="210" width="10" height="230" as="geometry"/>
                </mxCell>
                <mxCell id="Yh5Q2Wu9u5Uw5rpOBgke-5" value="" style="html=1;points=[];perimeter=orthogonalPerimeter;" parent="kfKKQYalvcVPobqDcQN6-1" vertex="1">
                    <mxGeometry x="55" y="285" width="10" height="20" as="geometry"/>
                </mxCell>
                <mxCell id="agKsEs1f8TgJbRtIlZe3-7" value="&lt;span style=&quot;text-align: center; background-color: rgb(251, 251, 251);&quot;&gt;&amp;lt;&amp;lt;async&amp;gt;&amp;gt;&lt;br&gt;&lt;/span&gt;" style="edgeStyle=orthogonalEdgeStyle;html=1;align=left;spacingLeft=2;endArrow=block;rounded=0;" parent="kfKKQYalvcVPobqDcQN6-1" source="agKsEs1f8TgJbRtIlZe3-2" target="agKsEs1f8TgJbRtIlZe3-3" edge="1">
                    <mxGeometry y="-30" relative="1" as="geometry">
                        <mxPoint x="100" y="150" as="sourcePoint"/>
                        <Array as="points">
                            <mxPoint x="-10" y="170"/>
                            <mxPoint x="-10" y="210"/>
                        </Array>
                        <mxPoint as="offset"/>
                    </mxGeometry>
                </mxCell>
                <mxCell id="BZkd5wPFXZcv4N2xyIMW-1" value="Core - TlsService" style="shape=umlLifeline;perimeter=lifelinePerimeter;whiteSpace=wrap;html=1;container=1;collapsible=0;recursiveResize=0;outlineConnect=0;" parent="1" vertex="1">
                    <mxGeometry x="554" y="323" width="100" height="150" as="geometry"/>
                </mxCell>
                <mxCell id="9V_8YxxvmHmmnwziv814-13" value="" style="html=1;points=[];perimeter=orthogonalPerimeter;" parent="BZkd5wPFXZcv4N2xyIMW-1" vertex="1">
                    <mxGeometry x="45" y="60" width="10" height="20" as="geometry"/>
                </mxCell>
                <mxCell id="BZkd5wPFXZcv4N2xyIMW-3" value="DataBase" style="shape=umlLifeline;perimeter=lifelinePerimeter;whiteSpace=wrap;html=1;container=1;collapsible=0;recursiveResize=0;outlineConnect=0;" parent="1" vertex="1">
                    <mxGeometry x="100" y="160" width="100" height="490" as="geometry"/>
                </mxCell>
                <mxCell id="9V_8YxxvmHmmnwziv814-1" value="" style="html=1;points=[];perimeter=orthogonalPerimeter;" parent="BZkd5wPFXZcv4N2xyIMW-3" vertex="1">
                    <mxGeometry x="45" y="90" width="10" height="20" as="geometry"/>
                </mxCell>
                <mxCell id="9V_8YxxvmHmmnwziv814-23" value="" style="html=1;points=[];perimeter=orthogonalPerimeter;" parent="BZkd5wPFXZcv4N2xyIMW-3" vertex="1">
                    <mxGeometry x="45" y="130" width="10" height="20" as="geometry"/>
                </mxCell>
                <mxCell id="Yh5Q2Wu9u5Uw5rpOBgke-23" value="" style="html=1;points=[];perimeter=orthogonalPerimeter;" parent="BZkd5wPFXZcv4N2xyIMW-3" vertex="1">
                    <mxGeometry x="45" y="420" width="10" height="20" as="geometry"/>
                </mxCell>
                <mxCell id="Yh5Q2Wu9u5Uw5rpOBgke-20" value="" style="html=1;points=[];perimeter=orthogonalPerimeter;" parent="BZkd5wPFXZcv4N2xyIMW-3" vertex="1">
                    <mxGeometry x="45" y="350" width="10" height="20" as="geometry"/>
                </mxCell>
                <mxCell id="9V_8YxxvmHmmnwziv814-2" value="getDsl(id)" style="html=1;verticalAlign=bottom;endArrow=block;entryX=0;entryY=0;" parent="1" source="agKsEs1f8TgJbRtIlZe3-2" target="9V_8YxxvmHmmnwziv814-1" edge="1">
                    <mxGeometry relative="1" as="geometry">
                        <mxPoint x="195" y="220" as="sourcePoint"/>
                    </mxGeometry>
                </mxCell>
                <mxCell id="9V_8YxxvmHmmnwziv814-3" value="compiledDsl" style="html=1;verticalAlign=bottom;endArrow=open;dashed=1;endSize=8;exitX=0;exitY=0.95;" parent="1" source="9V_8YxxvmHmmnwziv814-1" target="agKsEs1f8TgJbRtIlZe3-2" edge="1">
                    <mxGeometry relative="1" as="geometry">
                        <mxPoint x="195" y="296" as="targetPoint"/>
                    </mxGeometry>
                </mxCell>
                <mxCell id="9V_8YxxvmHmmnwziv814-4" value="startServer(id)" style="html=1;verticalAlign=bottom;startArrow=circle;startFill=1;endArrow=open;startSize=6;endSize=8;" parent="1" target="agKsEs1f8TgJbRtIlZe3-2" edge="1">
                    <mxGeometry width="80" relative="1" as="geometry">
                        <mxPoint x="480" y="220" as="sourcePoint"/>
                        <mxPoint x="270" y="220" as="targetPoint"/>
                        <Array as="points"/>
                    </mxGeometry>
                </mxCell>
                <mxCell id="9V_8YxxvmHmmnwziv814-14" value="deriveCert(serverName)" style="html=1;verticalAlign=bottom;endArrow=block;entryX=0;entryY=0;" parent="1" source="agKsEs1f8TgJbRtIlZe3-3" target="9V_8YxxvmHmmnwziv814-13" edge="1">
                    <mxGeometry relative="1" as="geometry">
                        <mxPoint x="339" y="340" as="sourcePoint"/>
                    </mxGeometry>
                </mxCell>
                <mxCell id="9V_8YxxvmHmmnwziv814-15" value="cert" style="html=1;verticalAlign=bottom;endArrow=open;dashed=1;endSize=8;exitX=0;exitY=0.95;" parent="1" source="9V_8YxxvmHmmnwziv814-13" target="agKsEs1f8TgJbRtIlZe3-3" edge="1">
                    <mxGeometry relative="1" as="geometry">
                        <mxPoint x="339" y="416" as="targetPoint"/>
                    </mxGeometry>
                </mxCell>
                <mxCell id="9V_8YxxvmHmmnwziv814-24" value="setDslStatus(id, &quot;Spawning&quot;)" style="html=1;verticalAlign=bottom;endArrow=block;entryX=0;entryY=0;" parent="1" source="agKsEs1f8TgJbRtIlZe3-2" target="9V_8YxxvmHmmnwziv814-23" edge="1">
                    <mxGeometry relative="1" as="geometry">
                        <mxPoint x="45" y="280" as="sourcePoint"/>
                    </mxGeometry>
                </mxCell>
                <mxCell id="9V_8YxxvmHmmnwziv814-25" value="" style="html=1;verticalAlign=bottom;endArrow=open;dashed=1;endSize=8;exitX=0;exitY=0.95;" parent="1" source="9V_8YxxvmHmmnwziv814-23" target="agKsEs1f8TgJbRtIlZe3-2" edge="1">
                    <mxGeometry relative="1" as="geometry">
                        <mxPoint x="310" y="340" as="targetPoint"/>
                    </mxGeometry>
                </mxCell>
                <mxCell id="Yh5Q2Wu9u5Uw5rpOBgke-21" value="setDslStatus(id, &quot;Error&quot;)" style="html=1;verticalAlign=bottom;endArrow=block;" parent="1" source="agKsEs1f8TgJbRtIlZe3-3" target="Yh5Q2Wu9u5Uw5rpOBgke-20" edge="1">
                    <mxGeometry relative="1" as="geometry">
                        <mxPoint x="324.5" y="500" as="sourcePoint"/>
                    </mxGeometry>
                </mxCell>
                <mxCell id="Yh5Q2Wu9u5Uw5rpOBgke-22" value="" style="html=1;verticalAlign=bottom;endArrow=open;dashed=1;endSize=8;" parent="1" source="Yh5Q2Wu9u5Uw5rpOBgke-20" target="agKsEs1f8TgJbRtIlZe3-3" edge="1">
                    <mxGeometry x="-0.0004" relative="1" as="geometry">
                        <mxPoint x="324.5" y="528.5" as="targetPoint"/>
                        <Array as="points">
                            <mxPoint x="250" y="530"/>
                        </Array>
                        <mxPoint as="offset"/>
                    </mxGeometry>
                </mxCell>
                <mxCell id="Yh5Q2Wu9u5Uw5rpOBgke-24" value="setDslStatus(id, &quot;Running&quot;)" style="html=1;verticalAlign=bottom;endArrow=block;exitX=0.031;exitY=0.911;exitDx=0;exitDy=0;exitPerimeter=0;" parent="1" source="agKsEs1f8TgJbRtIlZe3-3" target="Yh5Q2Wu9u5Uw5rpOBgke-23" edge="1">
                    <mxGeometry relative="1" as="geometry">
                        <mxPoint x="75" y="570" as="sourcePoint"/>
                    </mxGeometry>
                </mxCell>
                <mxCell id="Yh5Q2Wu9u5Uw5rpOBgke-25" value="" style="html=1;verticalAlign=bottom;endArrow=open;dashed=1;endSize=8;" parent="1" source="Yh5Q2Wu9u5Uw5rpOBgke-23" target="agKsEs1f8TgJbRtIlZe3-3" edge="1">
                    <mxGeometry relative="1" as="geometry">
                        <mxPoint x="75" y="646" as="targetPoint"/>
                        <Array as="points">
                            <mxPoint x="250" y="600"/>
                        </Array>
                    </mxGeometry>
                </mxCell>
                <mxCell id="agKsEs1f8TgJbRtIlZe3-8" value="" style="html=1;verticalAlign=bottom;endArrow=open;dashed=1;endSize=8;" parent="1" source="agKsEs1f8TgJbRtIlZe3-2" edge="1">
                    <mxGeometry relative="1" as="geometry">
                        <mxPoint x="480" y="310" as="sourcePoint"/>
                        <mxPoint x="480" y="340" as="targetPoint"/>
                    </mxGeometry>
                </mxCell>
            </root>
        </mxGraphModel>
    </diagram>
    <diagram name="start2" id="V9zngLun4eCDH6h6uctr">
        <mxGraphModel dx="979" dy="787" grid="1" gridSize="10" guides="1" tooltips="1" connect="1" arrows="1" fold="1" page="1" pageScale="1" pageWidth="827" pageHeight="1169" math="0" shadow="0">
            <root>
                <mxCell id="pBLbUDvJy5IyVbJOkcDt-0"/>
                <mxCell id="pBLbUDvJy5IyVbJOkcDt-1" parent="pBLbUDvJy5IyVbJOkcDt-0"/>
                <mxCell id="pBLbUDvJy5IyVbJOkcDt-2" value="Core - DslService" style="shape=umlLifeline;perimeter=lifelinePerimeter;whiteSpace=wrap;html=1;container=1;collapsible=0;recursiveResize=0;outlineConnect=0;" parent="pBLbUDvJy5IyVbJOkcDt-1" vertex="1">
                    <mxGeometry x="160" y="160" width="110" height="330" as="geometry"/>
                </mxCell>
                <mxCell id="pBLbUDvJy5IyVbJOkcDt-11" value="K8s API" style="shape=umlLifeline;perimeter=lifelinePerimeter;whiteSpace=wrap;html=1;container=1;collapsible=0;recursiveResize=0;outlineConnect=0;" parent="pBLbUDvJy5IyVbJOkcDt-1" vertex="1">
                    <mxGeometry x="510" y="160" width="100" height="330" as="geometry"/>
                </mxCell>
                <mxCell id="pBLbUDvJy5IyVbJOkcDt-12" value="" style="html=1;points=[];perimeter=orthogonalPerimeter;" parent="pBLbUDvJy5IyVbJOkcDt-11" vertex="1">
                    <mxGeometry x="45" y="80" width="10" height="20" as="geometry"/>
                </mxCell>
                <mxCell id="pBLbUDvJy5IyVbJOkcDt-13" value="" style="html=1;points=[];perimeter=orthogonalPerimeter;" parent="pBLbUDvJy5IyVbJOkcDt-11" vertex="1">
                    <mxGeometry x="45" y="140" width="10" height="20" as="geometry"/>
                </mxCell>
                <mxCell id="pBLbUDvJy5IyVbJOkcDt-14" value="" style="html=1;points=[];perimeter=orthogonalPerimeter;" parent="pBLbUDvJy5IyVbJOkcDt-11" vertex="1">
                    <mxGeometry x="45" y="290" width="10" height="20" as="geometry"/>
                </mxCell>
                <mxCell id="Gog_lnurdcakm_qzN9x4-1" value="" style="html=1;points=[];perimeter=orthogonalPerimeter;" parent="pBLbUDvJy5IyVbJOkcDt-11" vertex="1">
                    <mxGeometry x="45" y="200" width="10" height="30" as="geometry"/>
                </mxCell>
                <mxCell id="pBLbUDvJy5IyVbJOkcDt-17" value="createSecret(name, cert, rootCa, id)" style="html=1;verticalAlign=bottom;endArrow=block;entryX=0;entryY=0;" parent="pBLbUDvJy5IyVbJOkcDt-1" source="pBLbUDvJy5IyVbJOkcDt-2" target="pBLbUDvJy5IyVbJOkcDt-12" edge="1">
                    <mxGeometry relative="1" as="geometry">
                        <mxPoint x="465" y="380" as="sourcePoint"/>
                    </mxGeometry>
                </mxCell>
                <mxCell id="pBLbUDvJy5IyVbJOkcDt-18" value="" style="html=1;verticalAlign=bottom;endArrow=open;dashed=1;endSize=8;exitX=0;exitY=0.95;" parent="pBLbUDvJy5IyVbJOkcDt-1" source="pBLbUDvJy5IyVbJOkcDt-12" target="pBLbUDvJy5IyVbJOkcDt-2" edge="1">
                    <mxGeometry relative="1" as="geometry">
                        <mxPoint x="465" y="456" as="targetPoint"/>
                    </mxGeometry>
                </mxCell>
                <mxCell id="pBLbUDvJy5IyVbJOkcDt-21" value="createResources(...)" style="html=1;verticalAlign=bottom;endArrow=block;entryX=0;entryY=0;" parent="pBLbUDvJy5IyVbJOkcDt-1" source="pBLbUDvJy5IyVbJOkcDt-2" target="pBLbUDvJy5IyVbJOkcDt-13" edge="1">
                    <mxGeometry relative="1" as="geometry">
                        <mxPoint x="465" y="470" as="sourcePoint"/>
                    </mxGeometry>
                </mxCell>
                <mxCell id="pBLbUDvJy5IyVbJOkcDt-22" value="" style="html=1;verticalAlign=bottom;endArrow=open;dashed=1;endSize=8;exitX=0;exitY=0.95;" parent="pBLbUDvJy5IyVbJOkcDt-1" source="pBLbUDvJy5IyVbJOkcDt-13" target="pBLbUDvJy5IyVbJOkcDt-2" edge="1">
                    <mxGeometry relative="1" as="geometry">
                        <mxPoint x="465" y="546" as="targetPoint"/>
                    </mxGeometry>
                </mxCell>
                <mxCell id="pBLbUDvJy5IyVbJOkcDt-23" value="" style="html=1;verticalAlign=bottom;endArrow=open;dashed=1;endSize=8;exitX=0;exitY=0.95;" parent="pBLbUDvJy5IyVbJOkcDt-1" source="pBLbUDvJy5IyVbJOkcDt-14" target="pBLbUDvJy5IyVbJOkcDt-2" edge="1">
                    <mxGeometry relative="1" as="geometry">
                        <mxPoint x="465" y="596" as="targetPoint"/>
                    </mxGeometry>
                </mxCell>
                <mxCell id="pBLbUDvJy5IyVbJOkcDt-24" value="createWebhookConfig(name, rootCa, id)" style="html=1;verticalAlign=bottom;endArrow=block;entryX=0;entryY=0;" parent="pBLbUDvJy5IyVbJOkcDt-1" source="pBLbUDvJy5IyVbJOkcDt-2" target="pBLbUDvJy5IyVbJOkcDt-14" edge="1">
                    <mxGeometry relative="1" as="geometry">
                        <mxPoint x="465" y="520" as="sourcePoint"/>
                    </mxGeometry>
                </mxCell>
                <mxCell id="Gog_lnurdcakm_qzN9x4-2" value="waitUntilAgentIsRunning()" style="html=1;verticalAlign=bottom;endArrow=block;entryX=0;entryY=0;" parent="pBLbUDvJy5IyVbJOkcDt-1" source="pBLbUDvJy5IyVbJOkcDt-2" target="Gog_lnurdcakm_qzN9x4-1" edge="1">
                    <mxGeometry relative="1" as="geometry">
                        <mxPoint x="485" y="350" as="sourcePoint"/>
                    </mxGeometry>
                </mxCell>
                <mxCell id="Gog_lnurdcakm_qzN9x4-3" value="" style="html=1;verticalAlign=bottom;endArrow=open;dashed=1;endSize=8;exitX=0;exitY=0.95;" parent="pBLbUDvJy5IyVbJOkcDt-1" source="Gog_lnurdcakm_qzN9x4-1" target="pBLbUDvJy5IyVbJOkcDt-2" edge="1">
                    <mxGeometry relative="1" as="geometry">
                        <mxPoint x="485" y="426" as="targetPoint"/>
                    </mxGeometry>
                </mxCell>
            </root>
        </mxGraphModel>
    </diagram>
</mxfile>